<svg width="20.000000" height="18.009155" viewBox="0 0 512 512" fill="none" xmlns="http://www.w3.org/2000/svg">
<g clip-path="url(#clip0_7019_2)">
<path d="M373.333 19.5627C349.311 19.9363 325.812 26.6422 305.211 39.0031C284.609 51.364 267.634 68.9423 256 89.9627C244.366 68.9423 227.391 51.364 206.789 39.0031C186.188 26.6422 162.689 19.9363 138.667 19.5627C100.372 21.2265 64.2924 37.9787 38.31 66.1596C12.3277 94.3405 -1.44535 131.659 -9.87142e-06 169.963C-9.87142e-06 314.496 233.728 481.429 243.669 488.512L256 497.237L268.331 488.512C278.272 481.472 512 314.496 512 169.963C513.445 131.659 499.672 94.3405 473.69 66.1596C447.708 37.9787 411.628 21.2265 373.333 19.5627Z" fill="#E01710"/>
</g>
<defs>
<clipPath id="clip0_7019_2">
<rect width="512" height="512" fill="white"/>
</clipPath>
</defs>
</svg>
